<mxfile host="65bd71144e" modified="2020-10-10T09:35:09.230Z" agent="5.0 (X11; Linux x86_64) AppleWebKit/537.36 (KHTML, like Gecko) Code/1.50.0 Chrome/83.0.4103.122 Electron/9.2.1 Safari/537.36" etag="WRIymcJyOIByof3xCmOa" version="13.6.5">
    <diagram name="Page-1" id="13e1069c-82ec-6db2-03f1-153e76fe0fe0">
        <mxGraphModel dx="443" dy="314" grid="0" gridSize="10" guides="1" tooltips="1" connect="1" arrows="1" fold="1" page="0" pageScale="1" pageWidth="1100" pageHeight="850" background="#ffffff" math="0" shadow="0">
            <root>
                <mxCell id="0"/>
                <mxCell id="1" parent="0"/>
                <mxCell id="vXMNKmHhxJSPpm8mqWFt-4" value="" style="rounded=0;whiteSpace=wrap;html=1;fillColor=none;fontColor=#000000;strokeColor=#000000;" parent="1" vertex="1">
                    <mxGeometry x="10" y="10" width="640" height="830" as="geometry"/>
                </mxCell>
                <mxCell id="8hgb_S_A5nP3CUkCG9I1-37" value="Sidecar Container" style="swimlane;labelBackgroundColor=#ffffff;fontColor=#000000;strokeColor=#000000;fillColor=#FFFFFF;" parent="1" vertex="1">
                    <mxGeometry x="280" y="40" width="220" height="790" as="geometry"/>
                </mxCell>
                <mxCell id="8hgb_S_A5nP3CUkCG9I1-31" value="status done" style="html=1;verticalAlign=bottom;endArrow=open;dashed=1;endSize=8;labelBackgroundColor=#ffffff;fontFamily=Verdana;fontSize=12;edgeStyle=elbowEdgeStyle;elbow=vertical;exitX=-0.048;exitY=0.474;exitDx=0;exitDy=0;exitPerimeter=0;fontColor=#000000;strokeColor=#000000;" parent="8hgb_S_A5nP3CUkCG9I1-37" edge="1">
                    <mxGeometry x="0.0614" relative="1" as="geometry">
                        <mxPoint x="-72" y="580" as="targetPoint"/>
                        <Array as="points">
                            <mxPoint x="143" y="580.43"/>
                        </Array>
                        <mxPoint x="100.52000000000021" y="580.9899999999999" as="sourcePoint"/>
                        <mxPoint as="offset"/>
                    </mxGeometry>
                </mxCell>
                <mxCell id="8hgb_S_A5nP3CUkCG9I1-13" value="" style="rounded=0;whiteSpace=wrap;html=1;fontColor=#000000;fillColor=#FFFFFF;strokeColor=#000000;" parent="1" vertex="1">
                    <mxGeometry x="303" y="338" width="450" height="232" as="geometry"/>
                </mxCell>
                <mxCell id="7baba1c4bc27f4b0-2" value="Sidecar start cmd" style="shape=umlLifeline;perimeter=lifelinePerimeter;whiteSpace=wrap;html=1;container=1;collapsible=0;recursiveResize=0;outlineConnect=0;rounded=1;shadow=0;comic=0;labelBackgroundColor=#ffffff;strokeWidth=1;fontFamily=Verdana;fontSize=12;align=center;fontColor=#000000;fillColor=#FFFFFF;strokeColor=#000000;" parent="1" vertex="1">
                    <mxGeometry x="339" y="128" width="100" height="690" as="geometry"/>
                </mxCell>
                <mxCell id="7baba1c4bc27f4b0-10" value="" style="html=1;points=[];perimeter=orthogonalPerimeter;rounded=0;shadow=0;comic=0;labelBackgroundColor=none;strokeWidth=1;fontFamily=Verdana;fontSize=12;align=center;fontColor=#000000;strokeColor=#000000;fillColor=#FFFFFF;" parent="7baba1c4bc27f4b0-2" vertex="1">
                    <mxGeometry x="45" y="100" width="10" height="590" as="geometry"/>
                </mxCell>
                <mxCell id="8hgb_S_A5nP3CUkCG9I1-19" value="find latest backup" style="html=1;verticalAlign=bottom;endArrow=block;labelBackgroundColor=none;fontFamily=Verdana;fontSize=12;fontColor=#000000;strokeColor=#000000;" parent="7baba1c4bc27f4b0-2" target="8hgb_S_A5nP3CUkCG9I1-21" edge="1">
                    <mxGeometry x="-0.0938" relative="1" as="geometry">
                        <mxPoint x="55" y="275.9999999999999" as="sourcePoint"/>
                        <mxPoint x="375" y="275.9999999999999" as="targetPoint"/>
                        <Array as="points"/>
                        <mxPoint as="offset"/>
                    </mxGeometry>
                </mxCell>
                <mxCell id="8hgb_S_A5nP3CUkCG9I1-5" value="start server &lt;br&gt;(status endpoint)" style="html=1;verticalAlign=bottom;endArrow=block;labelBackgroundColor=#ffffff;fontFamily=Verdana;fontSize=12;entryX=0.9;entryY=0.074;entryDx=0;entryDy=0;entryPerimeter=0;fontColor=#000000;strokeColor=#000000;" parent="7baba1c4bc27f4b0-2" source="7baba1c4bc27f4b0-10" target="7baba1c4bc27f4b0-10" edge="1">
                    <mxGeometry x="0.3494" y="50" relative="1" as="geometry">
                        <mxPoint x="9.810344827586277" y="109.99999999999989" as="sourcePoint"/>
                        <mxPoint x="9.810344827586277" y="370" as="targetPoint"/>
                        <Array as="points">
                            <mxPoint x="91" y="110"/>
                            <mxPoint x="91" y="140"/>
                        </Array>
                        <mxPoint x="50" y="-50" as="offset"/>
                    </mxGeometry>
                </mxCell>
                <mxCell id="8hgb_S_A5nP3CUkCG9I1-28" value="decrypt backup archive&lt;br&gt;if encrypted" style="html=1;verticalAlign=bottom;endArrow=block;labelBackgroundColor=none;fontFamily=Verdana;fontSize=12;fontColor=#000000;strokeColor=#000000;" parent="7baba1c4bc27f4b0-2" source="7baba1c4bc27f4b0-10" edge="1">
                    <mxGeometry x="0.3572" y="-70" relative="1" as="geometry">
                        <mxPoint x="10.810344827586277" y="359.9999999999999" as="sourcePoint"/>
                        <mxPoint x="54" y="390" as="targetPoint"/>
                        <Array as="points">
                            <mxPoint x="81" y="360"/>
                            <mxPoint x="81" y="390"/>
                        </Array>
                        <mxPoint x="70" y="70" as="offset"/>
                    </mxGeometry>
                </mxCell>
                <mxCell id="7baba1c4bc27f4b0-3" value="Init Container" style="shape=umlLifeline;perimeter=lifelinePerimeter;whiteSpace=wrap;html=1;container=1;collapsible=0;recursiveResize=0;outlineConnect=0;rounded=1;shadow=0;comic=0;labelBackgroundColor=none;strokeWidth=1;fontFamily=Verdana;fontSize=12;align=center;fontColor=#000000;fillColor=#FFFFFF;strokeColor=#000000;" parent="1" vertex="1">
                    <mxGeometry x="540" y="128" width="100" height="92" as="geometry"/>
                </mxCell>
                <mxCell id="7baba1c4bc27f4b0-13" value="" style="html=1;points=[];perimeter=orthogonalPerimeter;rounded=0;shadow=0;comic=0;labelBackgroundColor=none;strokeWidth=1;fontFamily=Verdana;fontSize=12;align=center;fontColor=#000000;strokeColor=#000000;fillColor=#FFFFFF;" parent="7baba1c4bc27f4b0-3" vertex="1">
                    <mxGeometry x="45" y="50" width="10" height="30" as="geometry"/>
                </mxCell>
                <mxCell id="7baba1c4bc27f4b0-8" value="Sidecar wait cmd" style="shape=umlLifeline;perimeter=lifelinePerimeter;whiteSpace=wrap;html=1;container=1;collapsible=0;recursiveResize=0;outlineConnect=0;rounded=1;shadow=0;comic=0;labelBackgroundColor=none;strokeWidth=1;fontFamily=Verdana;fontSize=12;align=center;fontColor=#000000;fillColor=#FFFFFF;strokeColor=#000000;" parent="1" vertex="1">
                    <mxGeometry x="153" y="128" width="100" height="622" as="geometry"/>
                </mxCell>
                <mxCell id="7baba1c4bc27f4b0-9" value="" style="html=1;points=[];perimeter=orthogonalPerimeter;rounded=0;shadow=0;comic=0;labelBackgroundColor=none;strokeWidth=1;fontFamily=Verdana;fontSize=12;align=center;fontColor=#000000;strokeColor=#000000;fillColor=#FFFFFF;" parent="7baba1c4bc27f4b0-8" vertex="1">
                    <mxGeometry x="45" y="102" width="10" height="410" as="geometry"/>
                </mxCell>
                <mxCell id="7baba1c4bc27f4b0-17" value="provide binaries via empty dir" style="html=1;verticalAlign=bottom;endArrow=block;labelBackgroundColor=#ffffff;fontFamily=Verdana;fontSize=12;edgeStyle=elbowEdgeStyle;elbow=vertical;fontColor=#000000;strokeColor=#000000;" parent="1" source="7baba1c4bc27f4b0-13" target="7baba1c4bc27f4b0-9" edge="1">
                    <mxGeometry x="-0.4621" relative="1" as="geometry">
                        <mxPoint x="513" y="212" as="sourcePoint"/>
                        <Array as="points">
                            <mxPoint x="503" y="198"/>
                        </Array>
                        <mxPoint x="273" y="218" as="targetPoint"/>
                        <mxPoint as="offset"/>
                    </mxGeometry>
                </mxCell>
                <mxCell id="7baba1c4bc27f4b0-42" value="Contains sidecar&lt;br&gt;binary" style="shape=note;whiteSpace=wrap;html=1;size=14;verticalAlign=top;align=left;spacingTop=-6;rounded=0;shadow=0;comic=0;labelBackgroundColor=none;strokeWidth=1;fontFamily=Verdana;fontSize=12;fontColor=#000000;fillColor=#FFFFFF;strokeColor=#000000;" parent="1" vertex="1">
                    <mxGeometry x="540" y="78" width="100" height="35" as="geometry"/>
                </mxCell>
                <mxCell id="8hgb_S_A5nP3CUkCG9I1-3" value="" style="html=1;verticalAlign=bottom;endArrow=block;labelBackgroundColor=none;fontFamily=Verdana;fontSize=12;edgeStyle=elbowEdgeStyle;elbow=vertical;fontColor=#000000;strokeColor=#000000;" parent="1" edge="1">
                    <mxGeometry x="0.1083" y="-17" relative="1" as="geometry">
                        <mxPoint x="513" y="198" as="sourcePoint"/>
                        <Array as="points">
                            <mxPoint x="423" y="198"/>
                        </Array>
                        <mxPoint x="390" y="227" as="targetPoint"/>
                        <mxPoint as="offset"/>
                    </mxGeometry>
                </mxCell>
                <mxCell id="8hgb_S_A5nP3CUkCG9I1-7" value="checks if database &lt;br&gt;needs to be restored" style="html=1;verticalAlign=bottom;endArrow=block;labelBackgroundColor=#ffffff;fontFamily=Verdana;fontSize=12;fontColor=#000000;strokeColor=#000000;" parent="1" edge="1">
                    <mxGeometry x="0.3347" y="-55" relative="1" as="geometry">
                        <mxPoint x="394.8103448275863" y="287.9999999999999" as="sourcePoint"/>
                        <mxPoint x="395" y="318" as="targetPoint"/>
                        <Array as="points">
                            <mxPoint x="425" y="288"/>
                            <mxPoint x="425" y="318"/>
                        </Array>
                        <mxPoint x="55" y="55" as="offset"/>
                    </mxGeometry>
                </mxCell>
                <mxCell id="8hgb_S_A5nP3CUkCG9I1-12" value="possible restore" style="shape=card;whiteSpace=wrap;html=1;rotation=0;flipV=1;flipH=1;fontColor=#000000;strokeColor=#000000;fillColor=#FFFFFF;" parent="1" vertex="1">
                    <mxGeometry x="303" y="338" width="130" height="20" as="geometry"/>
                </mxCell>
                <mxCell id="8hgb_S_A5nP3CUkCG9I1-20" value="Backup Provider" style="shape=umlLifeline;perimeter=lifelinePerimeter;whiteSpace=wrap;html=1;container=1;collapsible=0;recursiveResize=0;outlineConnect=0;rounded=1;shadow=0;comic=0;labelBackgroundColor=none;strokeWidth=1;fontFamily=Verdana;fontSize=12;align=center;fontColor=#000000;fillColor=#FFFFFF;strokeColor=#000000;" parent="1" vertex="1">
                    <mxGeometry x="669" y="128" width="100" height="700" as="geometry"/>
                </mxCell>
                <mxCell id="8hgb_S_A5nP3CUkCG9I1-21" value="" style="html=1;points=[];perimeter=orthogonalPerimeter;rounded=0;shadow=0;comic=0;labelBackgroundColor=none;strokeWidth=1;fontFamily=Verdana;fontSize=12;align=center;fontColor=#000000;strokeColor=#000000;fillColor=#FFFFFF;" parent="8hgb_S_A5nP3CUkCG9I1-20" vertex="1">
                    <mxGeometry x="45" y="50" width="10" height="640" as="geometry"/>
                </mxCell>
                <mxCell id="8hgb_S_A5nP3CUkCG9I1-23" value="backup version" style="html=1;verticalAlign=bottom;endArrow=open;dashed=1;endSize=8;labelBackgroundColor=none;fontFamily=Verdana;fontSize=12;edgeStyle=elbowEdgeStyle;elbow=vertical;fontColor=#000000;strokeColor=#000000;" parent="1" target="7baba1c4bc27f4b0-10" edge="1">
                    <mxGeometry relative="1" as="geometry">
                        <mxPoint x="410" y="422" as="targetPoint"/>
                        <Array as="points">
                            <mxPoint x="558" y="422"/>
                        </Array>
                        <mxPoint x="702" y="422" as="sourcePoint"/>
                    </mxGeometry>
                </mxCell>
                <mxCell id="8hgb_S_A5nP3CUkCG9I1-24" value="download backup version" style="html=1;verticalAlign=bottom;endArrow=block;labelBackgroundColor=#ffffff;fontFamily=Verdana;fontSize=12;exitX=0.929;exitY=0.511;exitDx=0;exitDy=0;exitPerimeter=0;fontColor=#000000;strokeColor=#000000;" parent="1" target="8hgb_S_A5nP3CUkCG9I1-21" edge="1">
                    <mxGeometry x="-0.0938" relative="1" as="geometry">
                        <mxPoint x="393.28999999999996" y="457.8299999999999" as="sourcePoint"/>
                        <mxPoint x="697" y="457.8299999999999" as="targetPoint"/>
                        <Array as="points"/>
                        <mxPoint as="offset"/>
                    </mxGeometry>
                </mxCell>
                <mxCell id="8hgb_S_A5nP3CUkCG9I1-25" value="backup archive" style="html=1;verticalAlign=bottom;endArrow=open;dashed=1;endSize=8;labelBackgroundColor=#ffffff;fontFamily=Verdana;fontSize=12;edgeStyle=elbowEdgeStyle;elbow=vertical;exitX=-0.29;exitY=0.511;exitDx=0;exitDy=0;exitPerimeter=0;fontColor=#000000;strokeColor=#000000;" parent="1" edge="1">
                    <mxGeometry relative="1" as="geometry">
                        <mxPoint x="394" y="476" as="targetPoint"/>
                        <Array as="points"/>
                        <mxPoint x="711.0999999999999" y="475.3800000000001" as="sourcePoint"/>
                    </mxGeometry>
                </mxCell>
                <mxCell id="8hgb_S_A5nP3CUkCG9I1-36" value="Database Container" style="swimlane;labelBackgroundColor=#ffffff;fontColor=#000000;strokeColor=#000000;fillColor=#FFFFFF;" parent="1" vertex="1">
                    <mxGeometry x="30" y="40" width="240" height="790" as="geometry"/>
                </mxCell>
                <mxCell id="7baba1c4bc27f4b0-40" value="Sidecar injected &lt;br&gt;via entrypoint" style="shape=note;whiteSpace=wrap;html=1;size=14;verticalAlign=top;align=left;spacingTop=-6;rounded=0;shadow=0;comic=0;labelBackgroundColor=none;strokeWidth=1;fontFamily=Verdana;fontSize=12;fontColor=#000000;fillColor=#FFFFFF;strokeColor=#000000;" parent="8hgb_S_A5nP3CUkCG9I1-36" vertex="1">
                    <mxGeometry x="17" y="33" width="110" height="40" as="geometry"/>
                </mxCell>
                <mxCell id="8hgb_S_A5nP3CUkCG9I1-30" value="initializer status" style="html=1;verticalAlign=bottom;endArrow=block;labelBackgroundColor=#ffffff;fontFamily=Verdana;fontSize=12;fontColor=#000000;strokeColor=#000000;" parent="1" target="7baba1c4bc27f4b0-10" edge="1">
                    <mxGeometry relative="1" as="geometry">
                        <mxPoint x="209" y="417.9999999999999" as="sourcePoint"/>
                        <mxPoint x="337" y="418" as="targetPoint"/>
                    </mxGeometry>
                </mxCell>
                <mxCell id="8hgb_S_A5nP3CUkCG9I1-32" value="initializer status" style="html=1;verticalAlign=bottom;endArrow=block;labelBackgroundColor=#ffffff;fontFamily=Verdana;fontSize=12;fontColor=#000000;strokeColor=#000000;" parent="1" edge="1">
                    <mxGeometry relative="1" as="geometry">
                        <mxPoint x="209" y="599.9999999999999" as="sourcePoint"/>
                        <mxPoint x="384" y="600" as="targetPoint"/>
                    </mxGeometry>
                </mxCell>
                <mxCell id="7baba1c4bc27f4b0-23" value="initializer status" style="html=1;verticalAlign=bottom;endArrow=block;labelBackgroundColor=#ffffff;fontFamily=Verdana;fontSize=12;entryX=0.129;entryY=0.045;entryDx=0;entryDy=0;entryPerimeter=0;fontColor=#000000;strokeColor=#000000;" parent="1" source="7baba1c4bc27f4b0-9" target="7baba1c4bc27f4b0-10" edge="1">
                    <mxGeometry relative="1" as="geometry">
                        <mxPoint x="211" y="248" as="sourcePoint"/>
                        <mxPoint x="336" y="248" as="targetPoint"/>
                    </mxGeometry>
                </mxCell>
                <mxCell id="7baba1c4bc27f4b0-30" value="status checking" style="html=1;verticalAlign=bottom;endArrow=open;dashed=1;endSize=8;labelBackgroundColor=#ffffff;fontFamily=Verdana;fontSize=12;edgeStyle=elbowEdgeStyle;elbow=vertical;exitX=0.021;exitY=0.162;exitDx=0;exitDy=0;exitPerimeter=0;fontColor=#000000;strokeColor=#000000;" parent="1" source="7baba1c4bc27f4b0-10" edge="1">
                    <mxGeometry relative="1" as="geometry">
                        <mxPoint x="208" y="298" as="targetPoint"/>
                        <Array as="points">
                            <mxPoint x="233" y="298"/>
                        </Array>
                        <mxPoint x="333" y="298" as="sourcePoint"/>
                    </mxGeometry>
                </mxCell>
                <mxCell id="8hgb_S_A5nP3CUkCG9I1-6" value="initializer status" style="html=1;verticalAlign=bottom;endArrow=block;labelBackgroundColor=#ffffff;fontFamily=Verdana;fontSize=12;fontColor=#000000;strokeColor=#000000;" parent="1" target="7baba1c4bc27f4b0-2" edge="1">
                    <mxGeometry relative="1" as="geometry">
                        <mxPoint x="209" y="279.9999999999999" as="sourcePoint"/>
                        <mxPoint x="337" y="279.9999999999999" as="targetPoint"/>
                    </mxGeometry>
                </mxCell>
                <mxCell id="8hgb_S_A5nP3CUkCG9I1-15" value="[ no data or data inconsistent ]" style="text;html=1;fillColor=none;align=center;verticalAlign=middle;whiteSpace=wrap;rounded=0;labelBackgroundColor=#ffffff;fontColor=#000000;strokeColor=#000000;" parent="1" vertex="1">
                    <mxGeometry x="310" y="363" width="190" height="20" as="geometry"/>
                </mxCell>
                <mxCell id="8hgb_S_A5nP3CUkCG9I1-29" value="status restoring" style="html=1;verticalAlign=bottom;endArrow=open;dashed=1;endSize=8;labelBackgroundColor=#ffffff;fontFamily=Verdana;fontSize=12;edgeStyle=elbowEdgeStyle;elbow=vertical;fontColor=#000000;strokeColor=#000000;" parent="1" edge="1">
                    <mxGeometry relative="1" as="geometry">
                        <mxPoint x="208" y="435.9999999999999" as="targetPoint"/>
                        <Array as="points">
                            <mxPoint x="233" y="436"/>
                        </Array>
                        <mxPoint x="386" y="436" as="sourcePoint"/>
                    </mxGeometry>
                </mxCell>
                <mxCell id="8hgb_S_A5nP3CUkCG9I1-38" value="Database" style="shape=umlLifeline;perimeter=lifelinePerimeter;whiteSpace=wrap;html=1;container=1;collapsible=0;recursiveResize=0;outlineConnect=0;rounded=1;shadow=0;comic=0;labelBackgroundColor=none;strokeWidth=1;fontFamily=Verdana;fontSize=12;align=center;fontColor=#000000;fillColor=#FFFFFF;strokeColor=#000000;" parent="1" vertex="1">
                    <mxGeometry x="46" y="128" width="100" height="630" as="geometry"/>
                </mxCell>
                <mxCell id="8hgb_S_A5nP3CUkCG9I1-43" value="probe" style="html=1;verticalAlign=bottom;endArrow=block;labelBackgroundColor=#ffffff;fontFamily=Verdana;fontSize=12;entryX=0.9;entryY=0.554;entryDx=0;entryDy=0;entryPerimeter=0;fontColor=#000000;strokeColor=#000000;" parent="1" edge="1">
                    <mxGeometry relative="1" as="geometry">
                        <mxPoint x="388.5" y="683.02" as="sourcePoint"/>
                        <mxPoint x="100" y="683.02" as="targetPoint"/>
                    </mxGeometry>
                </mxCell>
                <mxCell id="8hgb_S_A5nP3CUkCG9I1-44" value="client port open" style="html=1;verticalAlign=bottom;endArrow=open;dashed=1;endSize=8;labelBackgroundColor=#ffffff;fontFamily=Verdana;fontSize=12;edgeStyle=elbowEdgeStyle;elbow=vertical;exitX=1.086;exitY=0.566;exitDx=0;exitDy=0;exitPerimeter=0;fontColor=#000000;strokeColor=#000000;" parent="1" edge="1">
                    <mxGeometry x="0.0614" relative="1" as="geometry">
                        <mxPoint x="389" y="702" as="targetPoint"/>
                        <Array as="points">
                            <mxPoint x="100" y="702"/>
                        </Array>
                        <mxPoint x="101.86000000000001" y="703.5799999999999" as="sourcePoint"/>
                        <mxPoint as="offset"/>
                    </mxGeometry>
                </mxCell>
                <mxCell id="8hgb_S_A5nP3CUkCG9I1-45" value="take backups periodically" style="html=1;verticalAlign=bottom;endArrow=block;labelBackgroundColor=#ffffff;fontFamily=Verdana;fontSize=12;entryX=0.9;entryY=0.554;entryDx=0;entryDy=0;entryPerimeter=0;exitX=-0.1;exitY=0.889;exitDx=0;exitDy=0;exitPerimeter=0;fontColor=#000000;strokeColor=#000000;" parent="1" edge="1">
                    <mxGeometry relative="1" as="geometry">
                        <mxPoint x="384" y="728.1600000000001" as="sourcePoint"/>
                        <mxPoint x="101" y="729.02" as="targetPoint"/>
                    </mxGeometry>
                </mxCell>
                <mxCell id="8hgb_S_A5nP3CUkCG9I1-48" value="compress to &lt;br&gt;backup archive" style="html=1;verticalAlign=bottom;endArrow=block;labelBackgroundColor=none;fontFamily=Verdana;fontSize=12;fontColor=#000000;strokeColor=#000000;" parent="1" edge="1">
                    <mxGeometry x="0.3494" y="-40" relative="1" as="geometry">
                        <mxPoint x="394" y="736" as="sourcePoint"/>
                        <mxPoint x="393" y="766" as="targetPoint"/>
                        <Array as="points">
                            <mxPoint x="420" y="736"/>
                            <mxPoint x="420" y="766"/>
                        </Array>
                        <mxPoint x="40" y="40" as="offset"/>
                    </mxGeometry>
                </mxCell>
                <mxCell id="8hgb_S_A5nP3CUkCG9I1-49" value="upload backup" style="html=1;verticalAlign=bottom;endArrow=block;labelBackgroundColor=#ffffff;fontFamily=Verdana;fontSize=12;exitX=0.929;exitY=0.511;exitDx=0;exitDy=0;exitPerimeter=0;fontColor=#000000;strokeColor=#000000;" parent="1" edge="1">
                    <mxGeometry x="-0.0938" relative="1" as="geometry">
                        <mxPoint x="393.28999999999996" y="811.8299999999999" as="sourcePoint"/>
                        <mxPoint x="718.5" y="811.8299999999999" as="targetPoint"/>
                        <Array as="points"/>
                        <mxPoint as="offset"/>
                    </mxGeometry>
                </mxCell>
                <mxCell id="vXMNKmHhxJSPpm8mqWFt-5" value="Database Pod" style="text;html=1;fillColor=none;align=center;verticalAlign=middle;whiteSpace=wrap;rounded=0;fontColor=#000000;strokeColor=#000000;" parent="1" vertex="1">
                    <mxGeometry x="10" y="10" width="90" height="20" as="geometry"/>
                </mxCell>
                <mxCell id="8hgb_S_A5nP3CUkCG9I1-39" value="" style="html=1;points=[];perimeter=orthogonalPerimeter;rounded=0;shadow=0;comic=0;labelBackgroundColor=none;strokeWidth=1;fontFamily=Verdana;fontSize=12;align=center;fontColor=#000000;strokeColor=#000000;fillColor=#FFFFFF;" parent="1" vertex="1">
                    <mxGeometry x="91" y="630" width="10" height="190" as="geometry"/>
                </mxCell>
                <mxCell id="8hgb_S_A5nP3CUkCG9I1-40" value="start" style="html=1;verticalAlign=bottom;endArrow=block;labelBackgroundColor=none;fontFamily=Verdana;fontSize=12;exitX=0.9;exitY=0.592;exitDx=0;exitDy=0;exitPerimeter=0;fontColor=#000000;strokeColor=#000000;" parent="1" edge="1">
                    <mxGeometry x="0.3572" y="-22" relative="1" as="geometry">
                        <mxPoint x="102" y="639.4799999999999" as="sourcePoint"/>
                        <mxPoint x="102" y="669" as="targetPoint"/>
                        <Array as="points">
                            <mxPoint x="129" y="639"/>
                            <mxPoint x="129" y="669"/>
                        </Array>
                        <mxPoint x="21" y="15" as="offset"/>
                    </mxGeometry>
                </mxCell>
                <mxCell id="3" value="uncompress backup archive&lt;br&gt;and restore database" style="html=1;verticalAlign=bottom;endArrow=block;labelBackgroundColor=none;fontFamily=Verdana;fontSize=12;fontColor=#000000;strokeColor=#000000;" edge="1" parent="1">
                    <mxGeometry x="0.3572" y="-70" relative="1" as="geometry">
                        <mxPoint x="394.5" y="530" as="sourcePoint"/>
                        <mxPoint x="393.5" y="560" as="targetPoint"/>
                        <Array as="points">
                            <mxPoint x="420.5" y="530"/>
                            <mxPoint x="420.5" y="560"/>
                        </Array>
                        <mxPoint x="70" y="70" as="offset"/>
                    </mxGeometry>
                </mxCell>
                <mxCell id="4" value="encrypt backup &lt;br&gt;archive&amp;nbsp;if enabled" style="html=1;verticalAlign=bottom;endArrow=block;labelBackgroundColor=none;fontFamily=Verdana;fontSize=12;fontColor=#000000;strokeColor=#000000;" edge="1" parent="1">
                    <mxGeometry x="0.3494" y="-44" relative="1" as="geometry">
                        <mxPoint x="395" y="773" as="sourcePoint"/>
                        <mxPoint x="394" y="803" as="targetPoint"/>
                        <Array as="points">
                            <mxPoint x="421" y="773"/>
                            <mxPoint x="421" y="803"/>
                        </Array>
                        <mxPoint x="44" y="44" as="offset"/>
                    </mxGeometry>
                </mxCell>
            </root>
        </mxGraphModel>
    </diagram>
</mxfile>
